<svg xmlns="http://www.w3.org/2000/svg" width="11.68" height="11.68" viewBox="0 0 11.68 11.68">
  <path id="Icon_ionic-md-call" data-name="Icon ionic-md-call" d="M15.531,12.611a7.616,7.616,0,0,1-2.3-.357.607.607,0,0,0-.649.162l-1.428,1.427A9.758,9.758,0,0,1,6.868,9.561L8.3,8.134a.676.676,0,0,0,.162-.649,7.057,7.057,0,0,1-.389-2.336A.651.651,0,0,0,7.42,4.5H5.149a.651.651,0,0,0-.649.649A11.022,11.022,0,0,0,15.531,16.18a.651.651,0,0,0,.649-.649V13.26A.651.651,0,0,0,15.531,12.611Z" transform="translate(-4.5 -4.5)" fill="#1c1955"/>
</svg>
