<svg xmlns="http://www.w3.org/2000/svg" width="16.891" height="13.666" viewBox="0 0 16.891 13.666">
  <path id="Union_5" data-name="Union 5" d="M-10386.584,1171.374a1.585,1.585,0,0,1-1.473-1.581v-8.351a1.476,1.476,0,0,1,1.478-1.458h.331v-.378a.367.367,0,0,1,.353-.38h1.143a.367.367,0,0,1,.351.38v.378h.182a.678.678,0,0,0,.523-.25c1.254-1.515,1.76-2.026,2.274-2.026h3.76c.51,0,.98.512,2.23,2.022a.688.688,0,0,0,.526.255h2.4a1.368,1.368,0,0,1,1.343,1.458v8.351a1.479,1.479,0,0,1-1.343,1.581Zm6.8-9.984a3.926,3.926,0,0,0-3.579,3.864,3.92,3.92,0,0,0,3.932,4.241,3.922,3.922,0,0,0,3.579-3.862,3.937,3.937,0,0,0-3.755-4.248C-10379.67,1161.386-10379.729,1161.388-10379.788,1161.391Zm3.828.73a.594.594,0,0,0,.571.619.6.6,0,0,0,.571-.619.594.594,0,0,0-.571-.616A.593.593,0,0,0-10375.96,1162.121Zm-6.18,3.323a2.634,2.634,0,0,1,2.527-2.729,2.634,2.634,0,0,1,2.529,2.729,2.634,2.634,0,0,1-2.529,2.729A2.634,2.634,0,0,1-10382.14,1165.443Z" transform="translate(10388.057 -1157.709)" fill="#1c1955"/>
</svg>
