<svg xmlns="http://www.w3.org/2000/svg" width="50" height="50" viewBox="0 0 50 50">
  <g id="Group_10440" data-name="Group 10440" transform="translate(1095 -1175)">
    <g id="Rectangle_899" data-name="Rectangle 899" transform="translate(-1095 1175)" fill="#e1432e" stroke="#c5c4c9" stroke-width="1">
      <rect width="50" height="50" rx="5" stroke="none"/>
      <rect x="0.5" y="0.5" width="49" height="49" rx="4.5" fill="none"/>
    </g>
    <path id="Icon_ionic-logo-google" data-name="Icon ionic-logo-google" d="M23.131,11.828l-.1-.427H13.739v3.932h5.55a5.556,5.556,0,0,1-5.435,4.177A6.5,6.5,0,0,1,9.48,17.767a6.244,6.244,0,0,1-1.863-4.408,6.441,6.441,0,0,1,1.829-4.4,6.223,6.223,0,0,1,4.345-1.7,5.668,5.668,0,0,1,3.7,1.44l2.794-2.78A9.887,9.887,0,0,0,13.7,3.382h0A10.176,10.176,0,0,0,6.5,6.311a10.135,10.135,0,0,0-2.842,7.053A10.033,10.033,0,0,0,6.388,20.3,10.422,10.422,0,0,0,13.9,23.351a9.269,9.269,0,0,0,6.751-2.838,9.967,9.967,0,0,0,2.593-6.9A11.5,11.5,0,0,0,23.131,11.828Z" transform="translate(-1083.656 1186.618)" fill="#fff"/>
  </g>
</svg>
