<svg xmlns="http://www.w3.org/2000/svg" width="12.808" height="15.764" viewBox="0 0 12.808 15.764">
  <path id="Icon_metro-bin" data-name="Icon metro-bin" d="M5.484,6.854v9.852a.988.988,0,0,0,.985.985h8.867a.988.988,0,0,0,.985-.985V6.854ZM8.44,15.721H7.454v-6.9H8.44Zm1.97,0H9.425v-6.9h.985Zm1.97,0H11.4v-6.9h.985Zm1.97,0h-.985v-6.9h.985ZM16.568,3.9h-3.2V2.667a.741.741,0,0,0-.739-.739H9.179a.741.741,0,0,0-.739.739V3.9h-3.2a.741.741,0,0,0-.739.739V5.869H17.307V4.637a.741.741,0,0,0-.739-.739Zm-4.187,0H9.425V2.926H12.38V3.9Z" transform="translate(-4.499 -1.928)" opacity="0.2"/>
</svg>
