<svg xmlns="http://www.w3.org/2000/svg" width="14.178" height="17.783" viewBox="0 0 14.178 17.783">
  <path id="Icon_ionic-ios-lock" data-name="Icon ionic-ios-lock" d="M18.281,9.184h-.988V7.3a3.954,3.954,0,0,0-7.907-.052V9.184H8.4A1.635,1.635,0,0,0,6.75,10.8v7.746A1.635,1.635,0,0,0,8.4,20.157h9.883a1.635,1.635,0,0,0,1.647-1.614V10.8A1.635,1.635,0,0,0,18.281,9.184Zm-4.365,5.035v2.776a.583.583,0,0,1-.548.581.572.572,0,0,1-.605-.565V14.219a1.287,1.287,0,0,1-.737-1.279,1.32,1.32,0,0,1,2.631.117A1.285,1.285,0,0,1,13.915,14.219Zm2.224-5.035h-5.6V7.248a2.692,2.692,0,0,1,.824-1.936,2.825,2.825,0,0,1,3.953,0,2.692,2.692,0,0,1,.824,1.936Z" transform="translate(-6.25 -2.874)" stroke="rgba(0,0,0,0)" stroke-width="1" opacity="0.2"/>
</svg>
