<svg xmlns="http://www.w3.org/2000/svg" width="19.734" height="17.014" viewBox="0 0 19.734 17.014">
  <g id="Group_4066" data-name="Group 4066" transform="translate(-44.905 -362.5)">
    <path id="Subtraction_1" data-name="Subtraction 1" d="M12.311,15.19H1.168A1.17,1.17,0,0,1,0,14.022V3.506A1.17,1.17,0,0,1,1.168,2.337h.584V12.926a.511.511,0,1,0,1.022,0V1.169a1.048,1.048,0,0,1,1.1-1.1L14.021,0A1.17,1.17,0,0,1,15.19,1.169V6.6l-4.153,1.85a.512.512,0,0,0-.448-.266h-5.4a.511.511,0,1,0,0,1.022h5.4a.508.508,0,0,0,.183-.034A12.074,12.074,0,0,0,10.7,11.1H5.185a.511.511,0,1,0,0,1.022h5.621a4.964,4.964,0,0,0,1.5,3.066ZM5.185,5.258a.511.511,0,1,0,0,1.022h7.157a.511.511,0,1,0,0-1.022Zm0-2.921a.511.511,0,1,0,0,1.022H8.252a.511.511,0,1,0,0-1.022Z" transform="translate(45.405 363)" stroke="rgba(0,0,0,0)" stroke-miterlimit="10" stroke-width="1" opacity="0.2"/>
    <path id="Icon_material-verified-user" data-name="Icon material-verified-user" d="M8,1.5,4.5,3.057V5.392A4.844,4.844,0,0,0,8,10.063a4.844,4.844,0,0,0,3.5-4.671V3.057ZM7.225,7.728,5.668,6.171l.549-.549,1.008,1L9.79,4.061l.549.553Z" transform="translate(52.633 368.936)" stroke="rgba(0,0,0,0)" stroke-miterlimit="10" stroke-width="1" opacity="0.2"/>
  </g>
</svg>
