<svg xmlns="http://www.w3.org/2000/svg" width="13.807" height="13.807" viewBox="0 0 13.807 13.807">
  <g id="Group_4065" data-name="Group 4065" transform="translate(-44.3 -294.625)">
    <path id="Icon_awesome-sticky-note" data-name="Icon awesome-sticky-note" d="M8.571,10.162h3.736V2.909a.658.658,0,0,0-.659-.659H.659A.658.658,0,0,0,0,2.909V13.9a.658.658,0,0,0,.659.659H7.912V10.821A.661.661,0,0,1,8.571,10.162Zm3.544,1.511L9.423,14.365a.659.659,0,0,1-.467.192H8.791V11.041h3.516v.168A.657.657,0,0,1,12.115,11.673Z" transform="translate(45.05 293.125)" fill="#fff" stroke="#cbcbcb" stroke-linecap="round" stroke-width="1.5"/>
    <line id="Line_33" data-name="Line 33" x2="7.901" transform="translate(47.253 297.882)" fill="none" stroke="#cbcbcb" stroke-linecap="round" stroke-width="1.5"/>
    <line id="Line_34" data-name="Line 34" x2="7.901" transform="translate(47.253 300.313)" fill="none" stroke="#cbcbcb" stroke-linecap="round" stroke-width="1.5"/>
    <line id="Line_35" data-name="Line 35" x2="3.54" transform="translate(47.253 302.744)" fill="none" stroke="#cbcbcb" stroke-linecap="round" stroke-width="1.5"/>
    <line id="Line_36" data-name="Line 36" x2="3.54" transform="translate(47.253 305.175)" fill="none" stroke="#cbcbcb" stroke-linecap="round" stroke-width="1.5"/>
  </g>
</svg>
