<svg xmlns="http://www.w3.org/2000/svg" width="50" height="50" viewBox="0 0 50 50">
  <g id="Group_10439" data-name="Group 10439" transform="translate(-259 -702)">
    <g id="Rectangle_900" data-name="Rectangle 900" transform="translate(259 702)" fill="#fff" stroke="#c5c4c9" stroke-width="1">
      <rect width="50" height="50" rx="5" stroke="none"/>
      <rect x="0.5" y="0.5" width="49" height="49" rx="4.5" fill="none"/>
    </g>
    <path id="Icon_awesome-apple" data-name="Icon awesome-apple" d="M14.538,12.973A4.229,4.229,0,0,1,16.8,9.131a4.867,4.867,0,0,0-3.837-2.02c-1.608-.127-3.366.938-4.009.938-.68,0-2.238-.892-3.461-.892C2.968,7.2.281,9.172.281,13.19a11.291,11.291,0,0,0,.652,3.678c.58,1.663,2.673,5.74,4.856,5.672,1.142-.027,1.948-.811,3.434-.811,1.441,0,2.188.811,3.461.811,2.2-.032,4.1-3.737,4.648-5.4a4.491,4.491,0,0,1-2.8-4.163ZM11.974,5.534A4.267,4.267,0,0,0,13.061,2.25,4.8,4.8,0,0,0,9.985,3.831a4.334,4.334,0,0,0-1.16,3.257,3.8,3.8,0,0,0,3.148-1.554Z" transform="translate(274.988 714.589)"/>
  </g>
</svg>
